<?xml version="1.0" ?><svg data-name="Layer 1" id="Layer_1" viewBox="0 0 64 64" xmlns="http://www.w3.org/2000/svg"><defs><style>.cls-1{fill:#a47c61;}.cls-10,.cls-11,.cls-2,.cls-4{fill:none;}.cls-2,.cls-4{stroke:#343433;stroke-linejoin:round;}.cls-11,.cls-2,.cls-4{stroke-width:2px;}.cls-3{fill:#ac8164;}.cls-10,.cls-11,.cls-4{stroke-linecap:round;}.cls-5{fill:#343433;}.cls-6{fill:#ececec;}.cls-7{fill:#b1304f;}.cls-8{fill:#fff;}.cls-9{fill:#a9a9a8;opacity:0.2;isolation:isolate;}.cls-10{stroke:#333;}.cls-10,.cls-11{stroke-miterlimit:10;}.cls-11{stroke:#cdcccb;}</style></defs><title/><g id="Men"><rect class="cls-1" height="10" width="14" x="25.02" y="39"/><line class="cls-2" x1="25.02" x2="25.02" y1="41" y2="46"/><line class="cls-2" x1="39.02" x2="39.02" y1="41" y2="46"/><path class="cls-3" d="M32,44a8.12,8.12,0,0,1-3.39-.52C25.3,41.73,22,38.32,22,36V34a5.57,5.57,0,0,1-3-4c-.46-2.18,0-4.08,2-4.08V23c0-5,3.06-10,11-10s11,5.12,11,10.08V26c2,0,2.46,1.82,2,4a5.58,5.58,0,0,1-3,4v2c0,2.32-3.27,5.73-6.6,7.48A8.15,8.15,0,0,1,32,44Z"/><path class="cls-1" d="M43,26V23.08C43,18.12,40,13,32,13a16,16,0,0,0-2.25.16c-1.37,6.31-3.26,15.51-3.26,20.54,0,1.87.23,5.43.51,8.77h0a16.11,16.11,0,0,0,1.61,1A8.12,8.12,0,0,0,32,44a8.15,8.15,0,0,0,3.4-.52C38.75,41.73,42,38.32,42,36V34a5.58,5.58,0,0,0,3-4C45.48,27.82,45,26,43,26Z"/><path class="cls-4" d="M32,44a8.12,8.12,0,0,1-3.39-.52C25.3,41.73,22,38.32,22,36V34a5.57,5.57,0,0,1-3-4c-.46-2.18,0-4.08,2-4.08V23c0-5,3.06-10,11-10s11,5.12,11,10.08V26c2,0,2.46,1.82,2,4a5.58,5.58,0,0,1-3,4v2c0,2.32-3.27,5.73-6.6,7.48A8.15,8.15,0,0,1,32,44Z"/><path class="cls-5" d="M39.1,13.35a11.84,11.84,0,0,0-14.16,0C20.45,16.45,20,17.28,20,22.09V27c1,0,2,0,2,2h1V24l1-1s0-3,1-4c1.19-1.19,4.17-1,7-1s5.81-.19,7,1c1,1,1,4,1,4l1,1v5h1c0-2,1-2,2-2V22.09C44,17.28,43.6,16.45,39.1,13.35Z"/><path class="cls-6" d="M56.75,54.71c-.3-2.29-2-3.65-4.41-4.64L40,45a11.92,11.92,0,0,1-16,0L11.68,50.07c-2.39,1-4.11,2.35-4.41,4.64l-.27,2H7a62.14,62.14,0,0,0,49.93,0h0Z"/><path class="cls-7" d="M45,47l-5-2a12.19,12.19,0,0,1-16,0l-5,2V60.47A57.46,57.46,0,0,0,32,62h0a57.62,57.62,0,0,0,13-1.49Z"/><circle class="cls-5" cx="36.02" cy="30" r="1"/><circle class="cls-5" cx="28.02" cy="30" r="1"/><path class="cls-8" d="M48,12c0-4-2.44-6-6-6a3.82,3.82,0,0,0-3,1c0-3-3-6-7-6s-7,3-7,6a3.77,3.77,0,0,0-3-1c-3.56,0-6,2-6,6s3,6,5,6v6H43V18C45,18,48,16,48,12Z"/><path class="cls-9" d="M38,24V18s4-2,4-5c0-5-3-6-3-6s9-3,9,5c0,5-5,6-5,6v6Z"/><path class="cls-2" d="M48,12c0-4-2.44-6-6-6a3.82,3.82,0,0,0-3,1c0-3-3-6-7-6s-7,3-7,6a3.77,3.77,0,0,0-3-1c-3.56,0-6,2-6,6s3,6,5,6v6H43V18C45,18,48,16,48,12Z"/><path class="cls-8" d="M27.07,52.12a1,1,0,1,1,1,1A1,1,0,0,1,27.07,52.12Z"/><path class="cls-8" d="M27.07,57.74a1,1,0,1,1,1,1A1,1,0,0,1,27.07,57.74Z"/><path class="cls-8" d="M36.05,57.74a1,1,0,1,1,1,1A1,1,0,0,1,36.05,57.74Z"/><path class="cls-8" d="M36.05,52.12a1,1,0,1,1,1,1A1,1,0,0,1,36.05,52.12Z"/><line class="cls-10" x1="31.02" x2="33.02" y1="39" y2="39"/><path class="cls-10" d="M30,34.5l1.11.38a2.85,2.85,0,0,0,1.78,0L34,34.5"/><path class="cls-5" d="M36.36,35.9c.61-.15.85.92.18.94a7.83,7.83,0,0,1-2.28-1.1,2.05,2.05,0,0,0-1.41-.19,3.08,3.08,0,0,0-.83.39,3.15,3.15,0,0,0-.82-.39,2.08,2.08,0,0,0-1.42.19,8,8,0,0,1-2.28,1.1c-.67,0-.42-1.09.18-.94a1,1,0,0,0-1.52.93,1.7,1.7,0,0,0,1.42,1.56c1.26.27,2.49,0,4.44-1,2,1,3.18,1.32,4.44,1a1.72,1.72,0,0,0,1.43-1.56,1,1,0,0,0-1.53-.93Z"/><line class="cls-11" x1="26.02" x2="26.02" y1="19" y2="21"/><line class="cls-11" x1="32.02" x2="32.02" y1="19" y2="21"/><line class="cls-11" x1="38.02" x2="38.02" y1="19" y2="21"/><path class="cls-4" d="M56.75,54.71c-.3-2.29-2-3.65-4.41-4.64L40,45a11.92,11.92,0,0,1-16,0L11.68,50.07c-2.39,1-4.11,2.35-4.41,4.64l-.27,2H7a62.14,62.14,0,0,0,49.93,0h0Z"/><line class="cls-2" x1="19.05" x2="19.05" y1="47.04" y2="61"/><line class="cls-2" x1="45.02" x2="45.02" y1="47.04" y2="61"/></g></svg>