<?xml version="1.0" ?><svg data-name="Layer 1" id="Layer_1" viewBox="0 0 64 64" xmlns="http://www.w3.org/2000/svg"><defs><style>.cls-1{fill:#333;}.cls-12,.cls-13,.cls-2,.cls-4,.cls-6,.cls-7{fill:none;}.cls-2,.cls-7{stroke:#333;}.cls-13,.cls-2,.cls-6,.cls-8,.cls-9{stroke-linejoin:round;}.cls-2{stroke-width:1.75px;}.cls-3{fill:#f3cac2;}.cls-13,.cls-4,.cls-6,.cls-8,.cls-9{stroke:#343433;}.cls-12,.cls-4,.cls-7{stroke-miterlimit:10;}.cls-12,.cls-13,.cls-4,.cls-6,.cls-8,.cls-9{stroke-width:2px;}.cls-5{fill:#fbd3ca;}.cls-6,.cls-7,.cls-8,.cls-9{stroke-linecap:round;}.cls-8{fill:#ececec;}.cls-9{fill:#a05153;}.cls-10{fill:#a9a9a8;opacity:0.2;isolation:isolate;}.cls-11{fill:#fff;}.cls-12{stroke:#cdcccb;}</style></defs><title/><g id="Women"><path class="cls-1" d="M43.58,42.66c0,5-5.12,5.31-11.44,5.31s-11.45-.32-11.45-5.31,5.13-9,11.45-9S43.58,37.66,43.58,42.66Z"/><path class="cls-1" d="M34.39,33.79c-6.29,0-11.39,4.06-11.39,9,0,3.44,2.42,4.66,6,5.09h3.14c6.32,0,11.45-.32,11.45-5.31C43.58,38.27,39.63,34.61,34.39,33.79Z"/><path class="cls-2" d="M43.58,42.66c0,5-5.12,5.31-11.44,5.31s-11.45-.32-11.45-5.31,5.13-9,11.45-9S43.58,37.66,43.58,42.66Z"/><polygon class="cls-3" points="39 46 32.08 50.08 25 46 25 42 39 42 39 46"/><line class="cls-4" x1="39" x2="39" y1="46" y2="42"/><path class="cls-5" d="M43,25V23c0-5.68-2.56-11-11-11S21,17.32,21,23v2c-1.82,0-2.3,1.59-2,4,.25,2,.9,4,3,4v2c0,3.15,2.52,5.35,5.36,8.19A5.32,5.32,0,0,0,32,45a5.47,5.47,0,0,0,4.81-1.81c2.93-3,5.19-5,5.19-8.19V33c2.1,0,2.75-2,3-4C45.3,26.59,44.82,25,43,25Z"/><path class="cls-3" d="M43,25V23c0-5.68-2.56-11-11-11a13.22,13.22,0,0,0-1.54.06C27,25.3,26.94,30.56,27,42.82l.37.37A5.32,5.32,0,0,0,32,45a5.47,5.47,0,0,0,4.81-1.81c2.93-3,5.19-5,5.19-8.19V33c2.1,0,2.75-2,3-4C45.3,26.59,44.82,25,43,25Z"/><path class="cls-6" d="M43,25V23c0-5.68-2.56-11-11-11S21,17.32,21,23v2c-1.82,0-2.3,1.59-2,4,.25,2,.9,4,3,4v2c0,3.15,2.52,5.35,5.36,8.19A5.32,5.32,0,0,0,32,45a5.47,5.47,0,0,0,4.81-1.81c2.93-3,5.19-5,5.19-8.19V33c2.1,0,2.75-2,3-4C45.3,26.59,44.82,25,43,25Z"/><path class="cls-1" d="M32,12c-9.45,0-12,4.88-12,9v5c1,0,2.08,1.1,2.08,4.1v-.39c0-1.78,2-3.67,3.64-4,6.33-1.29,8.33-1.61,10.33-3.61a7.5,7.5,0,0,0,3.8,3.33A3.9,3.9,0,0,1,42.05,29v1.14c0-2,.92-4.1,1.92-4.1V21C44,16.87,41.45,12,32,12Z"/><path class="cls-1" d="M25.22,25.71c1.27-.51,2.51-.83,3.71-1.23a26.34,26.34,0,0,0,3.4-1.3,9.69,9.69,0,0,0,2.81-2A10.78,10.78,0,0,0,37.07,18a5.67,5.67,0,0,1-.67,4.07A7.41,7.41,0,0,1,33.2,25a11.11,11.11,0,0,1-4,1A12.26,12.26,0,0,1,25.22,25.71Z"/><circle class="cls-1" cx="27.11" cy="30.26" r="1"/><circle class="cls-1" cx="36.41" cy="30.26" r="1"/><line class="cls-7" x1="29.76" x2="33.96" y1="39.11" y2="39.11"/><line class="cls-7" x1="31.23" x2="32.6" y1="40.81" y2="40.81"/><path class="cls-7" d="M29.76,36l1.16.32a2.91,2.91,0,0,0,1.89,0L34,36"/><path class="cls-1" d="M44.93,26.12a4.48,4.48,0,0,0-1,.8,4.62,4.62,0,0,0-.71,1,5.31,5.31,0,0,0-.48,2.46.72.72,0,0,1-1.43,0h0V29a3.39,3.39,0,0,0-.25-1.1,3.29,3.29,0,0,0-1.47-1.63l-.25-.13L39,26l-.67-.34a10.47,10.47,0,0,1-1.3-.82,8.45,8.45,0,0,1-2.13-2.33l1.53.19a10.38,10.38,0,0,1-1.8,1.53,9.72,9.72,0,0,1-2.15,1,30.56,30.56,0,0,1-4.32,1c-.68.13-1.47.25-2.06.38a5.1,5.1,0,0,0-1.67.72,3.48,3.48,0,0,0-1.58,3H21.38a5.85,5.85,0,0,0-.09-1.26,4.51,4.51,0,0,0-.4-1.19,4.58,4.58,0,0,0-.7-1,4.8,4.8,0,0,0-1-.81h0a.48.48,0,0,1-.16-.63.46.46,0,0,1,.58-.18,5,5,0,0,1,1.34.87,5.43,5.43,0,0,1,1,1.22,5.69,5.69,0,0,1,.63,1.48,6.94,6.94,0,0,1,.24,1.57.72.72,0,1,1-1.44.1h0v-.1a5,5,0,0,1,.43-2.4,5.36,5.36,0,0,1,1.59-2,6.52,6.52,0,0,1,2.21-1.09c.8-.22,1.43-.33,2.15-.5,1.38-.33,2.78-.63,4-1.06a8.06,8.06,0,0,0,3.24-2h0a1,1,0,0,1,1.35,0,.9.9,0,0,1,.15.19,6.52,6.52,0,0,0,1.58,1.88,8.76,8.76,0,0,0,1.05.71c.19.11.38.22.58.32l.29.15.38.2a4.87,4.87,0,0,1,2.12,2.57A5.14,5.14,0,0,1,42.82,29v1.42H41.34a6.94,6.94,0,0,1,.24-1.57,5.31,5.31,0,0,1,.63-1.47,5.7,5.7,0,0,1,1-1.22,5.21,5.21,0,0,1,1.33-.88.45.45,0,0,1,.6.22h0a.46.46,0,0,1-.18.58Z"/><line class="cls-4" x1="25" x2="25" y1="46" y2="42"/><path class="cls-8" d="M57,56c0-4-2.6-5-5-6L40,45a12.2,12.2,0,0,1-16,0L12,50c-2.4,1-5,2-5,6v1a61.68,61.68,0,0,0,25,5,61.72,61.72,0,0,0,25-5Z"/><path class="cls-9" d="M32,48a11.78,11.78,0,0,1-8-3l-5,2.08V60.75a68.77,68.77,0,0,0,26,0V47.08L40,45A11.78,11.78,0,0,1,32,48Z"/><path class="cls-10" d="M26.34,52.36a1.38,1.38,0,1,1,1.38,1.38h0A1.38,1.38,0,0,1,26.34,52.36Z"/><path class="cls-10" d="M26.34,58a1.38,1.38,0,1,1,1.38,1.38h0A1.38,1.38,0,0,1,26.34,58Z"/><path class="cls-10" d="M35.32,58a1.38,1.38,0,1,1,1.38,1.38h0A1.38,1.38,0,0,1,35.32,58Z"/><path class="cls-10" d="M35.32,52.36a1.38,1.38,0,1,1,1.38,1.38h0A1.38,1.38,0,0,1,35.32,52.36Z"/><path class="cls-11" d="M25.92,52a1.38,1.38,0,1,1,1.38,1.38h0A1.38,1.38,0,0,1,25.92,52Z"/><path class="cls-11" d="M25.92,57.57a1.38,1.38,0,1,1,0,.05Z"/><path class="cls-11" d="M34.9,57.57a1.38,1.38,0,1,1,0,.05Z"/><path class="cls-11" d="M34.9,52a1.38,1.38,0,1,1,1.38,1.38h0A1.38,1.38,0,0,1,34.9,52Z"/><path class="cls-11" d="M42,6a3.82,3.82,0,0,0-3,1c0-3-3-6-7-6s-7,3-7,6a3.78,3.78,0,0,0-3-1c-3.56,0-6,2-6,6a5.83,5.83,0,0,0,4,5.85V24H44V17.85A5.83,5.83,0,0,0,48,12C48,8,45.56,6,42,6Z"/><path class="cls-10" d="M38,24V18s4-2,4-5c0-5-3-6-3-6s9-3,9,5c0,5-5,6-5,6v6Z"/><line class="cls-12" x1="26" x2="26" y1="18" y2="21"/><line class="cls-12" x1="32" x2="32" y1="18" y2="21"/><line class="cls-12" x1="38" x2="38" y1="18" y2="21"/><path class="cls-13" d="M48,12c0-4-2.44-6-6-6a3.82,3.82,0,0,0-3,1c0-3-3-6-7-6s-7,3-7,6a3.78,3.78,0,0,0-3-1c-3.56,0-6,2-6,6a6,6,0,0,0,4,6v6H44V17.85A5.83,5.83,0,0,0,48,12Z"/></g></svg>