<?xml version="1.0" ?><svg data-name="Layer 1" id="Layer_1" viewBox="0 0 64 64" xmlns="http://www.w3.org/2000/svg"><defs><style>.cls-1{fill:#edcac3;}.cls-10,.cls-2,.cls-5,.cls-9{fill:none;}.cls-2,.cls-5{stroke:#343433;stroke-linejoin:round;}.cls-10,.cls-2,.cls-5{stroke-width:2px;}.cls-3{fill:#fbd3ca;}.cls-4{fill:#f1c9c1;}.cls-10,.cls-5,.cls-9{stroke-linecap:round;}.cls-6{fill:#343433;}.cls-7{fill:#fff;}.cls-8{fill:#a9a9a8;opacity:0.2;isolation:isolate;}.cls-9{stroke:#333;}.cls-10,.cls-9{stroke-miterlimit:10;}.cls-10{stroke:#cdcccb;}.cls-11{fill:#ececec;}.cls-12{fill:#b1304f;}</style></defs><title/><g id="Men"><rect class="cls-1" height="10" width="14" x="25.02" y="40"/><line class="cls-2" x1="25.02" x2="25.02" y1="42" y2="47"/><line class="cls-2" x1="39.02" x2="39.02" y1="42" y2="47"/><path class="cls-3" d="M32,45a8.12,8.12,0,0,1-3.39-.52C25.3,42.73,22,39.32,22,37V35a5.57,5.57,0,0,1-3-4c-.46-2.18,0-4.08,2-4.08V24c0-5,3.06-10,11-10s11,5.12,11,10.08V27c2,0,2.46,1.82,2,4a5.58,5.58,0,0,1-3,4v2c0,2.32-3.27,5.73-6.6,7.48A8.15,8.15,0,0,1,32,45Z"/><path class="cls-4" d="M43,27V24.08C43,19.12,40,14,32,14a16,16,0,0,0-2.25.16c-1.37,6.31-3.26,15.51-3.26,20.54,0,1.87.23,5.43.51,8.77h0a16.11,16.11,0,0,0,1.61,1A8.12,8.12,0,0,0,32,45a8.15,8.15,0,0,0,3.4-.52C38.75,42.73,42,39.32,42,37V35a5.58,5.58,0,0,0,3-4C45.48,28.82,45,27,43,27Z"/><path class="cls-5" d="M32,45a8.12,8.12,0,0,1-3.39-.52C25.3,42.73,22,39.32,22,37V35a5.57,5.57,0,0,1-3-4c-.46-2.18,0-4.08,2-4.08V24c0-5,3.06-10,11-10s11,5.12,11,10.08V27c2,0,2.46,1.82,2,4a5.58,5.58,0,0,1-3,4v2c0,2.32-3.27,5.73-6.6,7.48A8.15,8.15,0,0,1,32,45Z"/><path class="cls-6" d="M39.1,14.35a11.84,11.84,0,0,0-14.16,0C20.45,17.45,20,18.28,20,23.09V28c1,0,2,0,2,2h1V25l1-1s0-3,1-4c1.19-1.19,4.17-1,7-1s5.81-.19,7,1c1,1,1,4,1,4l1,1v5h1c0-2,1-2,2-2V23.09C44,18.28,43.6,17.45,39.1,14.35Z"/><circle class="cls-6" cx="36.02" cy="31" r="1"/><circle class="cls-6" cx="28.02" cy="31" r="1"/><path class="cls-7" d="M48,13c0-4-2.44-6-6-6a3.82,3.82,0,0,0-3,1c0-3-3-6-7-6s-7,3-7,6a3.77,3.77,0,0,0-3-1c-3.56,0-6,2-6,6s3,6,5,6v6H43V19C45,19,48,17,48,13Z"/><path class="cls-8" d="M38,25V19s4-2,4-5c0-5-3-6-3-6s9-3,9,5c0,5-5,6-5,6v6Z"/><path class="cls-2" d="M48,13c0-4-2.44-6-6-6a3.82,3.82,0,0,0-3,1c0-3-3-6-7-6s-7,3-7,6a3.77,3.77,0,0,0-3-1c-3.56,0-6,2-6,6s3,6,5,6v6H43V19C45,19,48,17,48,13Z"/><line class="cls-9" x1="31.02" x2="33.02" y1="40" y2="40"/><path class="cls-9" d="M30,35.5l1.11.38a2.85,2.85,0,0,0,1.78,0L34,35.5"/><path class="cls-6" d="M36.36,36.9c.61-.15.85.92.18.94a7.83,7.83,0,0,1-2.28-1.1,2.05,2.05,0,0,0-1.41-.19,3.08,3.08,0,0,0-.83.39,3.15,3.15,0,0,0-.82-.39,2.08,2.08,0,0,0-1.42.19,8,8,0,0,1-2.28,1.1c-.67,0-.42-1.09.18-.94a1,1,0,0,0-1.52.93,1.7,1.7,0,0,0,1.42,1.56c1.26.27,2.49,0,4.44-1,2,1,3.18,1.32,4.44,1a1.72,1.72,0,0,0,1.43-1.56,1,1,0,0,0-1.53-.93Z"/><line class="cls-10" x1="26.02" x2="26.02" y1="20" y2="22"/><line class="cls-10" x1="32.02" x2="32.02" y1="20" y2="22"/><line class="cls-10" x1="38.02" x2="38.02" y1="20" y2="22"/><path class="cls-11" d="M56.75,55.71c-.3-2.29-2-3.65-4.41-4.64L40,46a11.92,11.92,0,0,1-16,0L11.68,51.07c-2.39,1-4.11,2.35-4.41,4.64l-.27,2H7a62.14,62.14,0,0,0,49.93,0h0Z"/><path class="cls-12" d="M44.85,48l-5-2a12.19,12.19,0,0,1-16,0l-5,2-.06,13.47a57.62,57.62,0,0,0,13,1.49h0a57.53,57.53,0,0,0,13-1.49Z"/><path class="cls-7" d="M27.07,53.12a1,1,0,1,1,1,1A1,1,0,0,1,27.07,53.12Z"/><path class="cls-7" d="M27.07,58.74a1,1,0,1,1,1,1A1,1,0,0,1,27.07,58.74Z"/><path class="cls-7" d="M36.05,58.74a1,1,0,1,1,1,1A1,1,0,0,1,36.05,58.74Z"/><path class="cls-7" d="M36.05,53.12a1,1,0,1,1,1,1A1,1,0,0,1,36.05,53.12Z"/><path class="cls-5" d="M56.75,55.71c-.3-2.29-2-3.65-4.41-4.64L40,46a11.92,11.92,0,0,1-16,0L11.68,51.07c-2.39,1-4.11,2.35-4.41,4.64l-.27,2H7a62.14,62.14,0,0,0,49.93,0h0Z"/><line class="cls-2" x1="19.05" x2="19.05" y1="48.04" y2="62"/><line class="cls-2" x1="45.02" x2="45.02" y1="48.04" y2="62"/></g></svg>