<?xml version="1.0" ?><svg data-name="Layer 1" height="64" id="Layer_1" viewBox="0 0 64 64" width="64" xmlns="http://www.w3.org/2000/svg"><title/><g><rect height="10" style="fill: #a0775c" width="14" x="25.02" y="39.5"/><line style="fill: none;stroke: #343433;stroke-linejoin: round;stroke-width: 1.5px" x1="25.02" x2="25.02" y1="41.5" y2="46.5"/><line style="fill: none;stroke: #343433;stroke-linejoin: round;stroke-width: 1.5px" x1="39.02" x2="39.02" y1="41.5" y2="46.5"/><path d="M35.4,44a8.2,8.2,0,0,1-3.4.52A8.17,8.17,0,0,1,28.61,44C25.3,42.23,22,38.82,22,36.5v-2a5.55,5.55,0,0,1-3-4c-.46-2.18,0-4.08,2-4.08V23.5c0-5,3.06-10,11-10s11,5.12,11,10.08V26.5c2,0,2.46,1.82,2,4a5.6,5.6,0,0,1-3,4v2C42,38.82,38.73,42.23,35.4,44Z" style="fill: #ac8164"/><path d="M43,26.5V23.58c0-5-3.06-10.08-11-10.08a15.67,15.67,0,0,0-3,.28v9.94a2.15,2.15,0,0,1-2,2s3.26,0,4.21,1.49H32v4.38a1.45,1.45,0,0,0,.6,1.17,1,1,0,0,1-.6,1.8h0c-.73,0-1-.5-2-.5-.59,0-.5.77-.51.75a2,2,0,0,1,1,.27,3.21,3.21,0,0,0,1.5.38h0V39a1,1,0,0,0,.79,1A1.4,1.4,0,0,1,34,41.56c0,1.42-4.21,1.08-4.89,2.58A8.2,8.2,0,0,0,32,44.5,8.2,8.2,0,0,0,35.4,44c3.33-1.75,6.6-5.16,6.6-7.48v-2a5.6,5.6,0,0,0,3-4C45.46,28.32,45,26.5,43,26.5Z" style="fill: #a0775c"/><g><path d="M33.3,38.38a7.69,7.69,0,0,0-1.29.17,7.52,7.52,0,0,0-1.29-.17c-.94,0-1.14.36-2.19.36h0l1.19.84a2.06,2.06,0,0,0,1.27.46H33a2.06,2.06,0,0,0,1.27-.46l1.23-.8,0,0C34.52,38.77,34.27,38.38,33.3,38.38Z" style="fill: #916953"/><path d="M35.54,38.94a3,3,0,0,1-.95,0,6.08,6.08,0,0,0-.85-.17,5.64,5.64,0,0,0-1.65.2h-.16a6.73,6.73,0,0,0-1.63-.2c-.26,0-.53.1-.85.16a3.71,3.71,0,0,1-.94,0,.18.18,0,0,1-.15-.19.16.16,0,0,1,.15-.16,4.26,4.26,0,0,0,.82-.17,7.38,7.38,0,0,1,.87-.29,4.43,4.43,0,0,1,1.89.07h-.16a5.92,5.92,0,0,1,.93-.12,3.62,3.62,0,0,1,1,.06,10.06,10.06,0,0,0,1.7.48.18.18,0,0,1,.16.18.16.16,0,0,1-.16.16Z" style="fill: #674848"/></g><path d="M56.75,54.21c-.3-2.29-2-3.65-4.41-4.64L40,44.5a11.92,11.92,0,0,1-16,0L11.68,49.57c-2.39,1-4.11,2.35-4.41,4.64l-.27,2H7a62.14,62.14,0,0,0,49.93,0h0Z" style="fill: #fff"/><path d="M52.34,52.83,40,47.76a11.92,11.92,0,0,1-16,0L11.68,52.83c-2,.83-3.52,1.92-4.14,3.6a62.15,62.15,0,0,0,48.93,0C55.85,54.74,54.35,53.65,52.34,52.83Z" style="fill: #ececec"/><path d="M45,46.5l-5-2a12.19,12.19,0,0,1-16,0l-5,2V60A57.46,57.46,0,0,0,32,61.5h0A57.42,57.42,0,0,0,45,60Z" style="fill: #b1304f"/><path d="M27.07,51.62a1,1,0,1,1,1,1A1,1,0,0,1,27.07,51.62Z" style="fill: #fff"/><path d="M27.07,57.24a1,1,0,1,1,1,1A1,1,0,0,1,27.07,57.24Z" style="fill: #fff"/><path d="M36.05,57.24a1,1,0,1,1,1,1A1,1,0,0,1,36.05,57.24Z" style="fill: #fff"/><path d="M36.05,51.62a1,1,0,1,1,1,1A1,1,0,0,1,36.05,51.62Z" style="fill: #fff"/><path d="M56.75,54.21c-.3-2.29-2-3.65-4.41-4.64L40,44.5a11.92,11.92,0,0,1-16,0L11.68,49.57c-2.39,1-4.11,2.35-4.41,4.64l-.27,2H7a62.14,62.14,0,0,0,49.93,0h0Z" style="fill: none;stroke: #343433;stroke-linecap: round;stroke-linejoin: round;stroke-width: 1.5px"/><line style="fill: none;stroke: #343433;stroke-linejoin: round;stroke-width: 1.5px" x1="19.05" x2="19.05" y1="46.54" y2="60.5"/><line style="fill: none;stroke: #343433;stroke-linejoin: round;stroke-width: 1.5px" x1="45.02" x2="45.02" y1="46.54" y2="60.5"/><path d="M36.9,36.21a0,0,0,0,0-.06,0s0,0,0,.06a.49.49,0,0,1-.29.69c-.93.29-1.36-1.23-3-1.45a1.77,1.77,0,0,0-1.54.55v0a1.77,1.77,0,0,0-1.54-.55c-1.62.22-2.05,1.74-3,1.45a.49.49,0,0,1-.29-.69s0,0,0-.06a0,0,0,0,0-.06,0c-1.06.4-.69,2.08.41,2.47s2.69,0,4.47-1.24c1.78,1.23,3.25,1.68,4.47,1.24S38,36.61,36.9,36.21Z" style="fill: #343433"/><path d="M29.52,35.18a2.64,2.64,0,0,1,1.25.32h0a2.58,2.58,0,0,0,2.5,0h0a2.58,2.58,0,0,1,1.25-.32" style="fill: none;stroke: #674848;stroke-linecap: round;stroke-miterlimit: 10;stroke-width: 0.75px"/><g><path d="M24.38,28a5.24,5.24,0,0,1,3-.63,9.72,9.72,0,0,1,2.82,1h0a.23.23,0,0,1,.12.3.25.25,0,0,1-.23.14c-.54,0-1-.19-1.48-.26s-.93-.14-1.37-.21a7.29,7.29,0,0,0-2.75.06h0a.23.23,0,0,1-.15-.43Z" style="fill: #333"/><path d="M39.32,28.45a7.29,7.29,0,0,0-2.75-.06c-.44.07-.9.12-1.37.21s-.94.22-1.48.26a.23.23,0,0,1-.24-.22.21.21,0,0,1,.14-.22h0a9.83,9.83,0,0,1,2.82-1,5.24,5.24,0,0,1,3,.63.23.23,0,0,1,.09.32.21.21,0,0,1-.24.11Z" style="fill: #333"/><circle cx="27.45" cy="30.11" r="0.71" style="fill: #333"/><circle cx="36.41" cy="30.11" r="0.71" style="fill: #333"/></g><path d="M39.1,13.85a11.85,11.85,0,0,0-14.16,0C20.45,17,21,17.78,21,22.59v4.59c.57.16,1,.61,1,1.91h1V24.5l1-1s0-3,1-4c1.19-1.19,4.17-1,7-1s5.81-.19,7,1c1,1,1,4,1,4l1,1v4.59h1c0-1.27.4-1.73,1-1.9v-4.6C43,17.78,43.6,17,39.1,13.85Z" style="fill: #343433"/><path d="M32,44.5A8.17,8.17,0,0,1,28.61,44C25.3,42.23,22,38.82,22,36.5v-2a5.55,5.55,0,0,1-3-4c-.46-2.18,0-4.08,2-4.08V23.5c0-5,3.06-10,11-10s11,5.12,11,10.08V26.5c2,0,2.46,1.82,2,4a5.6,5.6,0,0,1-3,4v2c0,2.32-3.27,5.73-6.6,7.48A8.2,8.2,0,0,1,32,44.5Z" style="fill: none;stroke: #343433;stroke-linecap: round;stroke-linejoin: round;stroke-width: 1.5px"/><path d="M48,13.61a6.12,6.12,0,0,0-6.12-6.12,6.19,6.19,0,0,0-2.75.65,7.35,7.35,0,0,0-14.26,0,6.19,6.19,0,0,0-2.75-.65A6.12,6.12,0,0,0,21,19.63v5.93H43V19.63A6.13,6.13,0,0,0,48,13.61Z" style="fill: #fff"/><path d="M47.93,12.7a6.12,6.12,0,0,0-4.78-5.08,6,6,0,0,0-3.95.49c4.08,2.57,2.58,8.78-.29,10A1.58,1.58,0,0,0,38,19.58v6h5V19.63A6.12,6.12,0,0,0,47.93,12.7Z" style="fill: #eee;isolation: isolate"/><line style="fill: none;stroke: #cdcccb;stroke-linecap: round;stroke-miterlimit: 10;stroke-width: 1.5px" x1="26.02" x2="26.02" y1="20.56" y2="22.56"/><line style="fill: none;stroke: #cdcccb;stroke-linecap: round;stroke-miterlimit: 10;stroke-width: 1.5px" x1="32.02" x2="32.02" y1="20.56" y2="22.56"/><line style="fill: none;stroke: #cdcccb;stroke-linecap: round;stroke-miterlimit: 10;stroke-width: 1.5px" x1="38.02" x2="38.02" y1="20.56" y2="22.56"/><path d="M48,13.61a6.12,6.12,0,0,0-6.12-6.12,6.19,6.19,0,0,0-2.75.65,7.35,7.35,0,0,0-14.26,0,6.19,6.19,0,0,0-2.75-.65A6.12,6.12,0,0,0,21,19.63v5.93H43V19.63A6.13,6.13,0,0,0,48,13.61Z" style="fill: none;stroke: #343433;stroke-linejoin: round;stroke-width: 1.5px"/></g></svg>