<?xml version="1.0" ?><svg data-name="Layer 1" height="64" id="Layer_1" viewBox="0 0 64 64" width="64" xmlns="http://www.w3.org/2000/svg"><title/><g><path d="M43.58,42.66c0,5-5.12,5.31-11.44,5.31s-11.45-.32-11.45-5.31,5.13-9,11.45-9S43.58,37.66,43.58,42.66Z" style="fill: #333"/><path d="M43.58,42.66c0,5-5.12,5.31-11.44,5.31s-11.45-.32-11.45-5.31,5.13-9,11.45-9S43.58,37.66,43.58,42.66Z" style="fill: none;stroke: #333;stroke-linejoin: round;stroke-width: 1.5px"/><g><g id="Women"><path d="M34.39,33.79c-6.29,0-11.39,4.06-11.39,9,0,3.44,2.42,4.66,6,5.09h3.14c6.32,0,11.45-.32,11.45-5.31C43.58,38.27,39.63,34.61,34.39,33.79Z" style="fill: #333"/><path d="M56.41,52.05a4,4,0,0,0-2.84-3.19l-15.1-3.94v-4.7l-12.94.16v5l-15.1,3.47A4,4,0,0,0,7.58,52L7,55.55a61.37,61.37,0,0,0,25,5,61.7,61.7,0,0,0,25-5Z" style="fill: #edccc3"/><path d="M56.41,52.05a4,4,0,0,0-2.84-3.19L40.34,45.41,40,45.7a12.17,12.17,0,0,1-16,0l-.09-.11L10.43,48.86a4,4,0,0,0-2.85,3.19L7,55.55a61.37,61.37,0,0,0,25,5,61.7,61.7,0,0,0,25-5Z" style="fill: #fff"/><path d="M53.57,52.61,35.08,49.27a17.23,17.23,0,0,0-6.16,0L10.43,52.61a4,4,0,0,0-2.85,3.18A62,62,0,0,0,32,60.55a62,62,0,0,0,24.41-4.76A4,4,0,0,0,53.57,52.61Z" style="fill: #ececec"/><path d="M25.53,45.38l-15.1,3.47A4,4,0,0,0,7.58,52L7,55.55a61.37,61.37,0,0,0,25,5,61.7,61.7,0,0,0,25-5l-.59-3.5a4,4,0,0,0-2.84-3.19l-15.1-3.94" style="fill: none;stroke: #343433;stroke-linecap: round;stroke-linejoin: round;stroke-width: 1.5px"/><line style="fill: none;stroke: #343433;stroke-linecap: round;stroke-miterlimit: 10;stroke-width: 1.5px" x1="38.47" x2="38.47" y1="44.92" y2="41.5"/><path d="M43,25V23c0-5.68-2.56-11-11-11S21,17.32,21,23v2c-1.82,0-2.3,1.59-2,4,.25,2,.9,4,3,4v2c0,3.15,2.52,5.35,5.36,8.19A6,6,0,0,0,32,45a6.11,6.11,0,0,0,4.81-1.81c2.93-3,5.19-5,5.19-8.19V33c2.1,0,2.75-2,3-4C45.3,26.59,44.82,25,43,25Z" style="fill: #edccc3"/><path d="M43,25V23c0-5.68-2.56-11-11-11a16.39,16.39,0,0,0-2.91.24V24.77a3.9,3.9,0,0,1-1.27,2.88.45.45,0,0,0,.2.77A2.58,2.58,0,0,1,29.9,30.3a.49.49,0,0,0,.77.29,1.58,1.58,0,0,1,.58-.32.49.49,0,0,1,.61.48v2.07a1.09,1.09,0,0,0,.63.93c.57.32.16,1.4-.63,1.4h0a1.72,1.72,0,0,1-.9-.23c-.73-.37-1.43.39-1.27.68s.33,0,1.08.34a2.38,2.38,0,0,0,1.1.27V39.9a.38.38,0,0,0,.31.37c1.32.31,2,2.49-.31,3h0c-1,.19-1,1-1,1.67A7.72,7.72,0,0,0,32,45a6.11,6.11,0,0,0,4.81-1.81c2.93-3,5.19-5,5.19-8.19V33c2.1,0,2.75-2,3-4C45.3,26.59,44.82,25,43,25Z" style="fill: #f3cac2"/><path d="M32,12c-8.44,0-11,5.32-11,11v2c1.22,1.73,1.08,2,1.08,4.1,0-6.37,9.57-2.6,14-7,2.55,4.59,6,3.52,6,7,0-1.68.52-3.82,1-4.23V23C43,17.32,40.44,12,32,12Z" style="fill: #333"/><path d="M21.2,24.9c.16.31.37.58.57.91a3.49,3.49,0,0,1,.43,1.08,11.91,11.91,0,0,1,.22,2.21h-.68a4.34,4.34,0,0,1,.5-2.21,3.69,3.69,0,0,1,1.7-1.55,14.23,14.23,0,0,1,4.21-1,33.23,33.23,0,0,0,4.09-.74,7.72,7.72,0,0,0,3.46-1.83h0a.49.49,0,0,1,.69,0l.09.12a9.05,9.05,0,0,0,3,3.35,13.36,13.36,0,0,1,2,1.47,3.32,3.32,0,0,1,.86,2.46h-.66a11,11,0,0,1,.23-2.2,6.42,6.42,0,0,1,.85-2.06.23.23,0,0,1,.32-.07.24.24,0,0,1,.08.31,7.57,7.57,0,0,0-.82,4,.33.33,0,1,1-.66,0h0A2.62,2.62,0,0,0,41,27.21a12.58,12.58,0,0,0-1.92-1.29,9.69,9.69,0,0,1-2-1.56,10.48,10.48,0,0,1-1.5-2l.79.11a8.56,8.56,0,0,1-3.9,2.1,30.06,30.06,0,0,1-4.24.66,14,14,0,0,0-4,.83,3.07,3.07,0,0,0-1.4,1.21,3.6,3.6,0,0,0-.45,1.85h0a.34.34,0,0,1-.35.33.35.35,0,0,1-.33-.34,11.21,11.21,0,0,0-.1-2.1,3.06,3.06,0,0,0-.31-.94c-.16-.3-.38-.62-.53-1a.22.22,0,0,1,.1-.3A.23.23,0,0,1,21.2,24.9Z" style="fill: #333"/><path d="M43,25V23c0-5.68-2.56-11-11-11S21,17.32,21,23v2c-1.82,0-2.3,1.59-2,4,.23,1.81.78,3.61,2.43,4a.71.71,0,0,1,.57.7V35c0,3.15,2.52,5.35,5.36,8.19A6,6,0,0,0,32,45a6.11,6.11,0,0,0,4.81-1.81c2.93-3,5.19-5,5.19-8.19V33.65a.71.71,0,0,1,.57-.7c1.65-.34,2.2-2.14,2.43-4C45.3,26.59,44.82,25,43,25Z" style="fill: none;stroke: #343433;stroke-linecap: round;stroke-linejoin: round;stroke-width: 1.5px"/><line style="fill: none;stroke: #343433;stroke-linecap: round;stroke-miterlimit: 10;stroke-width: 1.5px" x1="25.52" x2="25.52" y1="45.38" y2="41.36"/><path d="M19,59.31a61.54,61.54,0,0,0,13,1.24A61.55,61.55,0,0,0,45,59.3V46.63l-4.66-1.22A12,12,0,0,1,32,48.7a11.74,11.74,0,0,1-8-3l-5,1.1Z" style="fill: #a05153;stroke: #343433;stroke-linecap: round;stroke-linejoin: round;stroke-width: 1.5px"/><path d="M19,59.31a61.54,61.54,0,0,0,13,1.24A61.55,61.55,0,0,0,45,59.3V46.63l-4.66-1.22A12,12,0,0,1,32,48.7a11.74,11.74,0,0,1-8-3l-5,1.1Z" style="fill: none;stroke: #343433;stroke-linecap: round;stroke-linejoin: round;stroke-width: 1.5px"/><circle cx="27.25" cy="30.62" r="0.75" style="fill: #333"/><path d="M29.06,31c-.58-.33-2.07-2.25-4-.33a2.41,2.41,0,0,1-.66-.46,4.1,4.1,0,0,1,3-.28" style="fill: #333;stroke: #333;stroke-linecap: round;stroke-miterlimit: 10;stroke-width: 0.503600748341765px"/><path d="M34.51,31c.58-.33,2.07-2.25,4-.33a2.32,2.32,0,0,0,.67-.46,4.1,4.1,0,0,0-3-.28" style="fill: #333;stroke: #333;stroke-linecap: round;stroke-miterlimit: 10;stroke-width: 0.503600748341765px"/><circle cx="36.25" cy="30.62" r="0.75" style="fill: #333"/><path d="M24.32,28.33a3.66,3.66,0,0,1,1.31-.53,4.43,4.43,0,0,1,1.41,0,11.38,11.38,0,0,1,1.34.31,7.24,7.24,0,0,0,1.22.28h0a.49.49,0,0,1,.45.55.5.5,0,0,1-.55.45h-.08a10.28,10.28,0,0,1-1.31-.5,10.05,10.05,0,0,0-1.21-.47,4,4,0,0,0-1.22-.2,1.91,1.91,0,0,0-1.15.38.17.17,0,1,1-.22-.27Z" style="fill: #333"/><path d="M38.9,28.62a1.82,1.82,0,0,0-1.15-.37,4,4,0,0,0-1.22.2c-.4.13-.79.3-1.2.47a7.88,7.88,0,0,1-1.33.49.51.51,0,1,1-.23-1h.08a8.3,8.3,0,0,0,1.21-.26,13.59,13.59,0,0,1,1.33-.32,4.76,4.76,0,0,1,1.41,0,3.66,3.66,0,0,1,1.31.53.18.18,0,0,1,.06.25.18.18,0,0,1-.25.05Z" style="fill: #333"/></g><path d="M29.86,36.44c1,0,1,.51,2,.51s1-.51,2-.51" style="fill: none;stroke: #e2b7b5;stroke-linecap: round;stroke-miterlimit: 10;stroke-width: 0.5px"/><line style="fill: none;stroke: #e2b7b5;stroke-linecap: round;stroke-miterlimit: 10;stroke-width: 0.5px" x1="31.86" x2="31.86" y1="36.79" y2="37.53"/><line style="fill: none;stroke: #dbafaf;stroke-linecap: round;stroke-miterlimit: 10;stroke-width: 0.5px" x1="28.91" x2="28.41" y1="38.88" y2="39.88"/><line style="fill: none;stroke: #dbafaf;stroke-linecap: round;stroke-miterlimit: 10;stroke-width: 0.5px" x1="34.91" x2="35.41" y1="38.88" y2="39.88"/><path d="M32.69,38.18a1.84,1.84,0,0,1-.78.2c-.21,0-.22,0-.68-.2-.8-.32-.84.66-2.33,1.2l.92.94a2.19,2.19,0,0,0,1.55.56h1A2.45,2.45,0,0,0,34,40.27l.86-.89C33.49,38.87,33.49,37.86,32.69,38.18Z" style="fill: #a56659"/><path d="M34.9,39.38c-1,0-1.49-.5-3,0h0c-1.48-.5-2,0-3,0" style="fill: none;stroke: #743f40;stroke-linecap: round;stroke-miterlimit: 10;stroke-width: 0.5px"/><path d="M29.91,35.94c1,0,1,.5,2,.5s1-.5,2-.5" style="fill: none;stroke: #ba8d86;stroke-linecap: round;stroke-miterlimit: 10;stroke-width: 0.75px"/></g><path d="M40,45.7a12.17,12.17,0,0,1-16,0" style="fill: none;stroke: #343433;stroke-linecap: round;stroke-linejoin: round;stroke-width: 1.5px"/><path d="M26.3,52.7a1,1,0,1,1,1,1h0A1,1,0,0,1,26.3,52.7Z" style="fill: #333"/><path d="M26.3,58.29a1,1,0,1,1,1,1,1,1,0,0,1-1-1Z" style="fill: #333"/><path d="M35.28,58.29a1,1,0,1,1,1,1,1,1,0,0,1-1-1Z" style="fill: #333"/><path d="M35.28,52.7a1,1,0,1,1,1,1h0A1,1,0,0,1,35.28,52.7Z" style="fill: #333"/><path d="M47.91,12.55a6.13,6.13,0,0,0-6.13-6.13A6.05,6.05,0,0,0,39,7.08a7.35,7.35,0,0,0-14.27,0A6,6,0,0,0,22,6.42a6.12,6.12,0,0,0-1.12,12.14V24.5h22V18.56A6.11,6.11,0,0,0,47.91,12.55Z" style="fill: #fff"/><path d="M47.84,11.64a6.13,6.13,0,0,0-4.79-5.08,6.05,6.05,0,0,0-3.95.49c4,2.52,2.64,8.57-.13,10a1.86,1.86,0,0,0-1,1.67V24.5h5V18.56A6.12,6.12,0,0,0,47.84,11.64Z" style="fill: #eee;isolation: isolate"/><line style="fill: none;stroke: #cdcccb;stroke-linecap: round;stroke-miterlimit: 10;stroke-width: 1.5px" x1="25.93" x2="25.93" y1="19.5" y2="21.5"/><line style="fill: none;stroke: #cdcccb;stroke-linecap: round;stroke-miterlimit: 10;stroke-width: 1.5px" x1="31.93" x2="31.93" y1="19.5" y2="21.5"/><line style="fill: none;stroke: #cdcccb;stroke-linecap: round;stroke-miterlimit: 10;stroke-width: 1.5px" x1="37.93" x2="37.93" y1="19.5" y2="21.5"/><path d="M47.91,12.55a6.13,6.13,0,0,0-6.13-6.13A6.05,6.05,0,0,0,39,7.08a7.35,7.35,0,0,0-14.27,0A6,6,0,0,0,22,6.42a6.12,6.12,0,0,0-1.12,12.14V24.5h22V18.56A6.11,6.11,0,0,0,47.91,12.55Z" style="fill: none;stroke: #343433;stroke-linejoin: round;stroke-width: 1.5px"/></g></svg>