<?xml version="1.0" ?><svg data-name="Layer 1" height="64" id="Layer_1" viewBox="0 0 64 64" width="64" xmlns="http://www.w3.org/2000/svg"><title/><path d="M56.78,54.18c-.3-2.29-2-3.65-4.4-4.64L39.05,44V39.47h-14v4.61L11.72,49.54c-2.39,1-4.12,2.35-4.42,4.64l-.27,2a62.17,62.17,0,0,0,49.94,0Z" style="fill: #d8b3ad"/><g><line style="fill: none;stroke: #343433;stroke-linejoin: round;stroke-width: 1.5px" x1="25.06" x2="25.06" y1="41.47" y2="46.47"/><line style="fill: none;stroke: #343433;stroke-linejoin: round;stroke-width: 1.5px" x1="39.06" x2="39.06" y1="41.47" y2="46.47"/><path d="M35.43,44a8.2,8.2,0,0,1-3.4.52A8.13,8.13,0,0,1,28.65,44C25.33,42.2,22,38.79,22,36.47v-2a5.62,5.62,0,0,1-3-4c-.45-2.18,0-4.08,2-4.08V23.47c0-5,3.07-10,11-10s11,5.12,11,10.08v2.92c2,0,2.46,1.82,2,4a5.57,5.57,0,0,1-3,4v2C42,38.79,38.76,42.2,35.43,44Z" style="fill: #edccc3"/><path d="M43,26.47V23.55c0-5-3.06-10.08-11-10.08a15.59,15.59,0,0,0-3,.28V24.91a2.1,2.1,0,0,1-1,1.67.22.22,0,0,0,.09.41,4.63,4.63,0,0,1,3,1.28.37.37,0,0,0,.28.13h.34a.26.26,0,0,1,.19.08.27.27,0,0,1,.08.19v2.88a1.47,1.47,0,0,0,.59,1.18,1,1,0,0,1,.41.8,1,1,0,0,1-1,1h0c-.74,0-1-.5-2-.5-.59,0-.5.77-.52.75a2.18,2.18,0,0,1,1,.26,3.08,3.08,0,0,0,1.5.39h0V39a1,1,0,0,0,.79,1A1.39,1.39,0,0,1,34,41.53c0,1.42-4.21,1.08-4.89,2.58a8.17,8.17,0,0,0,2.91.36A8.17,8.17,0,0,0,35.43,44C38.76,42.2,42,38.79,42,36.47v-2a5.62,5.62,0,0,0,3-4C45.49,28.29,45,26.47,43,26.47Z" style="fill: #e5c2ba"/><g><path d="M33.33,38.35a6.45,6.45,0,0,0-1.28.17,6.73,6.73,0,0,0-1.29-.17c-.94,0-1.15.36-2.2.36h0l1.19.84A2.06,2.06,0,0,0,31,40h2.06a2.06,2.06,0,0,0,1.27-.46l1.23-.81h0C34.56,38.73,34.31,38.35,33.33,38.35Z" style="fill: #ddbab6"/><path d="M35.57,38.88a3.32,3.32,0,0,1-.94-.07,7.63,7.63,0,0,0-.84-.19,5.43,5.43,0,0,0-1.68.19H32a6.35,6.35,0,0,0-1.66-.18,7.82,7.82,0,0,0-.84.17,3.25,3.25,0,0,1-.93.05.14.14,0,0,1-.13-.15.13.13,0,0,1,.13-.12,4.51,4.51,0,0,0,.83-.16,7.43,7.43,0,0,1,.87-.28,4.63,4.63,0,0,1,1.86.08H32a5.14,5.14,0,0,1,1.88-.06,9.37,9.37,0,0,0,1.71.44.14.14,0,0,1,.13.15A.14.14,0,0,1,35.57,38.88Z" style="fill: #af8582"/></g><path d="M56.78,54.18c-.29-2.29-2-3.65-4.4-4.64L40,44.47a11.92,11.92,0,0,1-16,0L11.72,49.54c-2.39,1-4.12,2.35-4.41,4.64l-.28,2H7a62.17,62.17,0,0,0,49.94,0h0Z" style="fill: #fff"/><path d="M52.38,52.79,40,47.72a11.9,11.9,0,0,1-16,0L11.71,52.79c-2,.84-3.52,1.93-4.14,3.61a62.18,62.18,0,0,0,48.94,0C55.88,54.71,54.38,53.62,52.38,52.79Z" style="fill: #ececec"/><path d="M45,46.47l-5-2a12.19,12.19,0,0,1-16,0l-5,2V59.94a57.59,57.59,0,0,0,13,1.53h0A57.42,57.42,0,0,0,45,60Z" style="fill: #b1304f"/><path d="M27.1,51.59a1,1,0,1,1,1,1A1,1,0,0,1,27.1,51.59Z" style="fill: #fff"/><path d="M27.1,57.21a1,1,0,1,1,1,1A1,1,0,0,1,27.1,57.21Z" style="fill: #fff"/><path d="M36.08,57.21a1,1,0,1,1,1,1A1,1,0,0,1,36.08,57.21Z" style="fill: #fff"/><path d="M36.08,51.59a1,1,0,1,1,1,1A1,1,0,0,1,36.08,51.59Z" style="fill: #fff"/><path d="M56.78,54.18c-.29-2.29-2-3.65-4.4-4.64L40,44.47a11.92,11.92,0,0,1-16,0L11.72,49.54c-2.39,1-4.12,2.35-4.41,4.64l-.28,2H7a62.17,62.17,0,0,0,49.94,0h0Z" style="fill: none;stroke: #343433;stroke-linecap: round;stroke-linejoin: round;stroke-width: 1.5px"/><line style="fill: none;stroke: #343433;stroke-linejoin: round;stroke-width: 1.5px" x1="19.08" x2="19.08" y1="46.51" y2="60.47"/><line style="fill: none;stroke: #343433;stroke-linejoin: round;stroke-width: 1.5px" x1="45.06" x2="45.06" y1="46.51" y2="60.47"/><path d="M36.94,36.18a.06.06,0,0,0-.08.08.49.49,0,0,1-.28.69c-.94.29-1.37-1.23-3-1.45a1.74,1.74,0,0,0-1.53.55v0a1.74,1.74,0,0,0-1.53-.55c-1.62.22-2.05,1.74-3,1.45a.49.49,0,0,1-.28-.69.06.06,0,0,0-.08-.08c-1.06.4-.68,2.08.41,2.47s2.69,0,4.48-1.24c1.78,1.23,3.24,1.68,4.47,1.24S38,36.58,36.94,36.18Z" style="fill: #343433"/><path d="M29.55,35.15a2.61,2.61,0,0,1,1.25.32h0a2.58,2.58,0,0,0,2.5,0h0a2.64,2.64,0,0,1,1.25-.32" style="fill: none;stroke: #af8582;stroke-linecap: round;stroke-miterlimit: 10;stroke-width: 0.75px"/><g><path d="M24.41,28a5.55,5.55,0,0,1,1.46-.54,5.9,5.9,0,0,1,1.57-.1,9.92,9.92,0,0,1,2.82,1h0a.22.22,0,0,1,.12.3.24.24,0,0,1-.22.14c-.55,0-1-.19-1.48-.26s-.93-.15-1.38-.21a7.24,7.24,0,0,0-2.74.06h0a.23.23,0,0,1-.27-.18A.24.24,0,0,1,24.41,28Z" style="fill: #333"/><path d="M39.36,28.42a7.3,7.3,0,0,0-2.75-.06c-.45.06-.91.11-1.37.21s-.94.22-1.48.26a.24.24,0,0,1-.25-.22.22.22,0,0,1,.14-.22h0a9.92,9.92,0,0,1,2.82-1,5.9,5.9,0,0,1,1.57.1,5.55,5.55,0,0,1,1.46.54.23.23,0,0,1,.09.31.21.21,0,0,1-.24.12Z" style="fill: #333"/><circle cx="27.49" cy="30.08" r="0.71" style="fill: #333"/><circle cx="36.45" cy="30.08" r="0.71" style="fill: #333"/></g><path d="M39.13,13.82a11.84,11.84,0,0,0-14.15,0C20.49,16.92,21,17.75,21,22.56v4.59c.58.16,1,.6,1,1.91h1V24.47l1-1s0-3,1-4c1.2-1.19,4.17-1,7-1s5.81-.19,7,1c1,1,1,4,1,4l1,1v4.59h1c0-1.27.41-1.73,1-1.9v-4.6C43,17.75,43.63,16.92,39.13,13.82Z" style="fill: #343433"/><path d="M35.43,44a8.2,8.2,0,0,1-3.4.52A8.2,8.2,0,0,1,28.64,44C25.34,42.2,22,38.79,22,36.47v-2a5.62,5.62,0,0,1-3-4c-.46-2.18,0-4.08,2-4.08V23.47c0-5,3.07-10,11-10s11,5.12,11,10.08v2.92c2,0,2.46,1.82,2,4a5.57,5.57,0,0,1-3,4v2C42,38.79,38.76,42.2,35.43,44Z" style="fill: none;stroke: #343433;stroke-linecap: round;stroke-linejoin: round;stroke-width: 1.5px"/><path d="M48,13.58a6.12,6.12,0,0,0-8.86-5.47,7.35,7.35,0,0,0-14.27,0A6.12,6.12,0,1,0,21,19.59v5.94H43V19.59A6.1,6.1,0,0,0,48,13.58Z" style="fill: #fff"/><path d="M48,12.67a6.13,6.13,0,0,0-4.79-5.08,6.05,6.05,0,0,0-4,.49c4.08,2.57,2.59,8.78-.28,10a1.57,1.57,0,0,0-.9,1.44v6h5V19.59A6.12,6.12,0,0,0,48,12.67Z" style="fill: #eee;isolation: isolate"/><line style="fill: none;stroke: #cdcccb;stroke-linecap: round;stroke-miterlimit: 10;stroke-width: 1.5px" x1="26.06" x2="26.06" y1="20.53" y2="22.53"/><line style="fill: none;stroke: #cdcccb;stroke-linecap: round;stroke-miterlimit: 10;stroke-width: 1.5px" x1="32.06" x2="32.06" y1="20.53" y2="22.53"/><line style="fill: none;stroke: #cdcccb;stroke-linecap: round;stroke-miterlimit: 10;stroke-width: 1.5px" x1="38.06" x2="38.06" y1="20.53" y2="22.53"/><path d="M48,13.58a6.12,6.12,0,0,0-8.86-5.47,7.35,7.35,0,0,0-14.27,0A6.12,6.12,0,1,0,21,19.59v5.94H43V19.59A6.1,6.1,0,0,0,48,13.58Z" style="fill: none;stroke: #343433;stroke-linejoin: round;stroke-width: 1.5px"/></g></svg>