<?xml version="1.0" ?><svg data-name="Layer 1" height="64" id="Layer_1" viewBox="0 0 64 64" width="64" xmlns="http://www.w3.org/2000/svg"><title/><g><path d="M42,43.78c0,5-5.12,5.31-11.44,5.31s-11.45-.32-11.45-5.31,5.13-9,11.45-9S42,38.78,42,43.78Z" style="fill: #333"/><path d="M42,43.78c0,5-5.12,5.31-11.44,5.31s-11.45-.32-11.45-5.31,5.13-9,11.45-9S42,38.78,42,43.78Z" style="fill: none;stroke: #333;stroke-linejoin: round;stroke-width: 1.5px"/><g><g id="Women"><path d="M32.76,34.91c-6.29,0-11.39,4.06-11.39,9,0,3.44,2.42,4.66,6,5.09h3.14C36.83,49,42,48.68,42,43.69,42,39.39,38,35.73,32.76,34.91Z" style="fill: #333"/><path d="M54.78,53.17A4,4,0,0,0,51.94,50L36.84,46v-4.7L23.9,41.5v5L8.8,50A4,4,0,0,0,6,53.16l-.58,3.51a61.54,61.54,0,0,0,25,5,61.74,61.74,0,0,0,25-5Z" style="fill: #9f785e"/><path d="M54.78,53.17A4,4,0,0,0,51.94,50L38.7,46.53l-.33.29a12.17,12.17,0,0,1-16,0l-.09-.12L8.8,50A4,4,0,0,0,6,53.17l-.58,3.5a61.54,61.54,0,0,0,25,5,61.74,61.74,0,0,0,25-5Z" style="fill: #fff"/><path d="M51.94,53.73l-18.5-3.34a17.18,17.18,0,0,0-6.15,0L8.8,53.73A4,4,0,0,0,6,56.91a62,62,0,0,0,24.42,4.76,62,62,0,0,0,24.41-4.76A4,4,0,0,0,51.94,53.73Z" style="fill: #ececec"/><path d="M23.9,46.5,8.8,50A4,4,0,0,0,6,53.16l-.58,3.51a61.54,61.54,0,0,0,25,5,61.74,61.74,0,0,0,25-5l-.59-3.5A4,4,0,0,0,51.94,50L36.84,46" style="fill: none;stroke: #343433;stroke-linecap: round;stroke-linejoin: round;stroke-width: 1.5px"/><line style="fill: none;stroke: #343433;stroke-linecap: round;stroke-miterlimit: 10;stroke-width: 1.5px" x1="36.84" x2="36.84" y1="46.04" y2="42.61"/><path d="M41.37,26.12v-2c0-5.68-2.56-11-11-11s-11,5.32-11,11v2c-1.82,0-2.3,1.59-2,4,.25,2,.9,4,3,4v2c0,3.15,2.52,5.35,5.36,8.19a6,6,0,0,0,4.64,1.81,6.16,6.16,0,0,0,4.81-1.81c2.93-3,5.19-5,5.19-8.19v-2c2.1,0,2.75-2,3-4C43.67,27.71,43.19,26.12,41.37,26.12Z" style="fill: #ac8164"/><path d="M41.37,26.12v-2c0-5.68-2.56-11-11-11a16.31,16.31,0,0,0-2.91.24V25.88a3.9,3.9,0,0,1-1.27,2.88.45.45,0,0,0,.2.77,2.61,2.61,0,0,1,1.88,1.88.48.48,0,0,0,.76.29,1.6,1.6,0,0,1,.59-.31.49.49,0,0,1,.61.48v2.06a1.1,1.1,0,0,0,.63.94c.57.31.16,1.4-.63,1.4h0A3.23,3.23,0,0,1,29,36.05c-.73-.37-1.43.38-1.27.67s.34,0,1.08.35a4.46,4.46,0,0,0,1.43.26V41a.39.39,0,0,0,.31.38c1.31.3,2,2.49-.31,3h0c-1,.2-1,1-1,1.68a11.49,11.49,0,0,0,1.18.09,6.16,6.16,0,0,0,4.81-1.81c2.93-3,5.19-5,5.19-8.19v-2c2.1,0,2.75-2,3-4C43.67,27.71,43.19,26.12,41.37,26.12Z" style="fill: #a47c61"/><path d="M30.37,13.12c-8.44,0-11,5.32-11,11v2c1.22,1.73,1.08,2,1.08,4.1,0-6.37,9.56-2.6,14-7,2.55,4.58,6,3.52,6,7,0-1.69.51-3.83.95-4.23V24.12C41.37,18.44,38.81,13.12,30.37,13.12Z" style="fill: #333"/><path d="M19.57,26c.16.31.37.58.57.91A3.87,3.87,0,0,1,20.57,28a11.17,11.17,0,0,1,.21,2.21h-.67A4.46,4.46,0,0,1,20.6,28a3.8,3.8,0,0,1,1.7-1.55,14.69,14.69,0,0,1,4.22-1,29.7,29.7,0,0,0,4.08-.74,7.48,7.48,0,0,0,3.46-1.83h0a.49.49,0,0,1,.7,0,.44.44,0,0,1,.08.11,9.11,9.11,0,0,0,3,3.36,12.7,12.7,0,0,1,2,1.47,3.28,3.28,0,0,1,.86,2.45h-.67a10.88,10.88,0,0,1,.24-2.19A6.11,6.11,0,0,1,41.17,26a.24.24,0,0,1,.32-.08.24.24,0,0,1,.07.31,7.58,7.58,0,0,0-.81,4,.33.33,0,0,1-.33.34.33.33,0,0,1-.34-.32h0v0a2.53,2.53,0,0,0-.74-1.92A12.46,12.46,0,0,0,37.43,27,10,10,0,0,1,34,23.46l.79.11a8.48,8.48,0,0,1-3.91,2.09,29.92,29.92,0,0,1-4.23.66,13.56,13.56,0,0,0-4,.84,3,3,0,0,0-1.4,1.2,3.71,3.71,0,0,0-.46,1.85v0a.33.33,0,0,1-.34.32.34.34,0,0,1-.33-.34,12,12,0,0,0-.1-2.09,2.88,2.88,0,0,0-.32-.95c-.16-.29-.37-.61-.53-1a.24.24,0,0,1,.11-.31A.24.24,0,0,1,19.57,26Z" style="fill: #333"/><path d="M41.37,26.12v-2c0-5.68-2.56-11-11-11s-11,5.32-11,11v2c-1.82,0-2.3,1.59-2,4,.22,1.8.77,3.61,2.43,3.94a.72.72,0,0,1,.57.7v1.36c0,3.15,2.52,5.35,5.36,8.19a6,6,0,0,0,4.64,1.81,6.16,6.16,0,0,0,4.81-1.81c2.93-3,5.19-5,5.19-8.19V34.76a.71.71,0,0,1,.57-.7c1.65-.33,2.2-2.14,2.43-3.94C43.67,27.71,43.19,26.12,41.37,26.12Z" style="fill: none;stroke: #343433;stroke-linecap: round;stroke-linejoin: round;stroke-width: 1.5px"/><line style="fill: none;stroke: #343433;stroke-linecap: round;stroke-miterlimit: 10;stroke-width: 1.5px" x1="23.89" x2="23.89" y1="46.5" y2="42.48"/><path d="M17.37,60.42a61.49,61.49,0,0,0,13,1.25,62.28,62.28,0,0,0,13-1.25V47.74L38.7,46.53a12,12,0,0,1-8.33,3.29,11.82,11.82,0,0,1-8-3l-5,1.1Z" style="fill: #a05153;stroke: #343433;stroke-linecap: round;stroke-linejoin: round;stroke-width: 1.5px"/><path d="M17.37,60.42a61.49,61.49,0,0,0,13,1.25,62.28,62.28,0,0,0,13-1.25V47.74L38.7,46.53a12,12,0,0,1-8.33,3.29,11.82,11.82,0,0,1-8-3l-5,1.1Z" style="fill: none;stroke: #343433;stroke-linecap: round;stroke-linejoin: round;stroke-width: 1.5px"/><circle cx="25.62" cy="31.74" r="0.75" style="fill: #333"/><path d="M27.42,32.11c-.57-.33-2.06-2.25-4-.33a2.26,2.26,0,0,1-.67-.46,4.15,4.15,0,0,1,3-.27" style="fill: #333;stroke: #333;stroke-linecap: round;stroke-miterlimit: 10;stroke-width: 0.503600748341765px"/><path d="M32.88,32.11c.58-.33,2.07-2.25,4-.33a2.26,2.26,0,0,0,.67-.46,4.14,4.14,0,0,0-3-.27" style="fill: #333;stroke: #333;stroke-linecap: round;stroke-miterlimit: 10;stroke-width: 0.503600748341765px"/><circle cx="34.62" cy="31.74" r="0.75" style="fill: #333"/><path d="M22.69,29.45A3.5,3.5,0,0,1,24,28.91a4.17,4.17,0,0,1,1.41,0,11.38,11.38,0,0,1,1.34.31,9.4,9.4,0,0,0,1.21.28h0a.5.5,0,1,1-.11,1h-.07a9.12,9.12,0,0,1-1.32-.5c-.4-.17-.8-.34-1.2-.47a3.93,3.93,0,0,0-1.22-.19,1.89,1.89,0,0,0-1.15.38.18.18,0,0,1-.23-.28Z" style="fill: #333"/><path d="M37.27,29.74a1.89,1.89,0,0,0-1.15-.38,4,4,0,0,0-1.22.21,9.92,9.92,0,0,0-1.2.47,8,8,0,0,1-1.34.48.49.49,0,0,1-.6-.37.49.49,0,0,1,.37-.61h.09a7.26,7.26,0,0,0,1.21-.27A10.77,10.77,0,0,1,34.76,29a4.1,4.1,0,0,1,1.4,0,3.31,3.31,0,0,1,1.32.53.18.18,0,0,1-.19.3Z" style="fill: #333"/></g><path d="M27.82,37.55c1.2,0,1.2.51,2.41.51s1.2-.51,2.41-.51" style="fill: none;stroke: #936b55;stroke-linecap: round;stroke-miterlimit: 10;stroke-width: 0.5489169359207153px"/><line style="fill: none;stroke: #936b55;stroke-linecap: round;stroke-miterlimit: 10;stroke-width: 0.5px" x1="30.23" x2="30.23" y1="37.9" y2="38.65"/><path d="M27.82,37.06c1.23,0,1.23.5,2.45.5s1.23-.5,2.46-.5" style="fill: none;stroke: #674848;stroke-linecap: round;stroke-miterlimit: 10;stroke-width: 0.75px"/></g><path d="M38.37,46.82a12.17,12.17,0,0,1-16,0" style="fill: none;stroke: #343433;stroke-linecap: round;stroke-linejoin: round;stroke-width: 1.5px"/><path d="M24.67,53.82a1,1,0,0,1,2,0,1,1,0,0,1-1,1h0A1,1,0,0,1,24.67,53.82Z" style="fill: #333"/><path d="M24.67,59.4a1,1,0,0,1,2,.07,1,1,0,0,1-1,1,1,1,0,0,1-1-1Z" style="fill: #333"/><path d="M33.65,59.4a1,1,0,0,1,2,.07,1,1,0,0,1-1,1,1,1,0,0,1-1-1Z" style="fill: #333"/><path d="M33.65,53.82a1,1,0,0,1,2,0,1,1,0,0,1-1,1h0A1,1,0,0,1,33.65,53.82Z" style="fill: #333"/><path d="M46.27,13.66a6.12,6.12,0,0,0-8.86-5.47,7.35,7.35,0,0,0-14.27,0,6.12,6.12,0,1,0-3.87,11.49v5.94h22V19.68A6.12,6.12,0,0,0,46.27,13.66Z" style="fill: #fff"/><path d="M46.21,12.76a6.12,6.12,0,0,0-8.74-4.6c4,2.53,2.64,8.57-.14,10a1.87,1.87,0,0,0-1,1.66v5.83h5V19.68A6.12,6.12,0,0,0,46.21,12.76Z" style="fill: #eee;isolation: isolate"/><line style="fill: none;stroke: #cdcccb;stroke-linecap: round;stroke-miterlimit: 10;stroke-width: 1.5px" x1="24.29" x2="24.29" y1="20.62" y2="22.62"/><line style="fill: none;stroke: #cdcccb;stroke-linecap: round;stroke-miterlimit: 10;stroke-width: 1.5px" x1="30.29" x2="30.29" y1="20.62" y2="22.62"/><line style="fill: none;stroke: #cdcccb;stroke-linecap: round;stroke-miterlimit: 10;stroke-width: 1.5px" x1="36.29" x2="36.29" y1="20.62" y2="22.62"/><path d="M46.27,13.66a6.12,6.12,0,0,0-8.86-5.47,7.35,7.35,0,0,0-14.27,0,6.12,6.12,0,1,0-3.87,11.49v5.94h22V19.68A6.12,6.12,0,0,0,46.27,13.66Z" style="fill: none;stroke: #343433;stroke-linejoin: round;stroke-width: 1.5px"/></g><line style="fill: none;stroke: #936b55;stroke-linecap: round;stroke-miterlimit: 10;stroke-width: 0.5px" x1="27.26" x2="26.76" y1="40" y2="41"/><line style="fill: none;stroke: #936b55;stroke-linecap: round;stroke-miterlimit: 10;stroke-width: 0.5px" x1="33.26" x2="33.76" y1="40" y2="41"/><path d="M31,39.29a1.91,1.91,0,0,1-.78.21c-.21,0-.22,0-.68-.21-.8-.31-.84.66-2.33,1.2l.92.94a2.17,2.17,0,0,0,1.55.56h1a2.5,2.5,0,0,0,1.67-.6l.86-.9C31.84,40,31.84,39,31,39.29Z" style="fill: #99715c"/><path d="M33.25,40.49c-1,0-1.49-.49-3,0h0c-1.48-.5-2,0-3,0" style="fill: none;stroke: #674848;stroke-linecap: round;stroke-linejoin: round;stroke-width: 0.5px"/></svg>